<svg xmlns="http://www.w3.org/2000/svg" data-name="Layer 3" viewBox="0 0 64 80" x="0px" y="0px"><title>GARBAGE-circular-arrows-recycling-tin-recycle-sea</title><path d="M43.71,30.29a1,1,0,0,0-1.42,0l-3,3a1,1,0,0,0,0,1.42L43.59,39,40,42.59l-4.29-4.3a1,1,0,0,0-1.42,0l-3,3a1,1,0,0,0,0,1.42l15,15a1,1,0,0,0,1.42,0l11-11a1,1,0,0,0,0-1.42ZM47,55.59,33.41,42,35,40.41l4.29,4.3a1,1,0,0,0,1.42,0l5-5a1,1,0,0,0,0-1.42L41.41,34,43,32.41,56.59,46Z"/><path d="M12,48H6a1,1,0,0,0-.76.34,1,1,0,0,0-.23.8l1,7A1,1,0,0,0,7,57h4a1,1,0,0,0,1-.86l1-7a1,1,0,0,0-.23-.8A1,1,0,0,0,12,48Zm-1.87,7H7.87l-.72-5h3.7Z"/><path d="M33,36a1,1,0,0,0,.76-.34,1,1,0,0,0,.23-.8l-1-7A1,1,0,0,0,32,27H28a1,1,0,0,0-1,.86l-1,7a1,1,0,0,0,.23.8A1,1,0,0,0,27,36Zm-4.13-7h2.26l.72,5h-3.7Z"/><path d="M62.71,19.29l-2.59-2.58a5.83,5.83,0,0,0-1.39-1l2-2a1,1,0,0,0,0-1.42l-3-3a1,1,0,0,0-1.42,0L52,13.59,48.41,10l4.3-4.29a1,1,0,0,0,0-1.42l-3-3a1,1,0,0,0-1.42,0l-15,15a1,1,0,0,0,0,1.42l.71.71A3.82,3.82,0,0,1,32,19a3.88,3.88,0,0,1-2.71-1.12l-1.17-1.17a5.79,5.79,0,0,0-7-1L14.71,9.29A1,1,0,0,0,14,9H10.41L5.71,4.29a1,1,0,0,0-1.42,0l-3,3a1,1,0,0,0,0,1.42L6,13.41v1.95a5.86,5.86,0,0,0-2.12,1.35L1.29,19.29A1,1,0,0,0,1,20V62a1,1,0,0,0,1,1H62a1,1,0,0,0,1-1V20A1,1,0,0,0,62.71,19.29ZM49,3.41,50.59,5l-4.3,4.29a1,1,0,0,0,0,1.42l5,5a1,1,0,0,0,1.42,0L57,11.41,58.59,13l-2,2A5.25,5.25,0,0,0,56,15a5.85,5.85,0,0,0-4.12,1.71l-1.17,1.17a3.84,3.84,0,0,1-5.42,0l-1.17-1.17a5.82,5.82,0,0,0-8.24,0l-.38.38L35.41,17Zm5,14.16-9,9L36.91,18.5l.38-.38a3.84,3.84,0,0,1,5.42,0l1.17,1.17a5.82,5.82,0,0,0,8.24,0l1.17-1.17A3.88,3.88,0,0,1,54,17.57Zm-33,.84L24.59,22,19,27.59,8.46,17.05a3.86,3.86,0,0,1,2.25,1.07l1.17,1.17a5.82,5.82,0,0,0,8.24,0ZM5,6.41,6.59,8,5,9.59,3.41,8Zm2.71,5.88L6.41,11,8,9.41l1.29,1.3A1,1,0,0,0,10,11h3.59l6,6-.88.88a3.84,3.84,0,0,1-5.42,0l-1.17-1.17A5.85,5.85,0,0,0,8,15V13A1,1,0,0,0,7.71,12.29ZM61,61H3V20.41l2.29-2.29a4,4,0,0,1,.86-.62,1.53,1.53,0,0,0,.14.21l12,12a1,1,0,0,0,1.42,0l7-7a1,1,0,0,0,0-1.42l-4-4A3.74,3.74,0,0,1,24,17a3.88,3.88,0,0,1,2.71,1.12l1.17,1.17a5.81,5.81,0,0,0,7.57.57l8.84,8.85a1,1,0,0,0,1.42,0L57.2,17.21a3.9,3.9,0,0,1,1.51.91L61,20.41Z"/><path d="M9,36a4,4,0,1,0-4-4A4,4,0,0,0,9,36Zm0-6a2,2,0,1,1-2,2A2,2,0,0,1,9,30Z"/><path d="M20,51a4,4,0,1,0,4,4A4,4,0,0,0,20,51Zm0,6a2,2,0,1,1,2-2A2,2,0,0,1,20,57Z"/><path d="M22,37a3,3,0,1,0,3,3A3,3,0,0,0,22,37Zm0,4a1,1,0,1,1,1-1A1,1,0,0,1,22,41Z"/><path d="M56,23a3,3,0,1,0,3,3A3,3,0,0,0,56,23Zm0,4a1,1,0,1,1,1-1A1,1,0,0,1,56,27Z"/><path d="M33,50a3,3,0,1,0-3,3A3,3,0,0,0,33,50Zm-3,1a1,1,0,1,1,1-1A1,1,0,0,1,30,51Z"/><path d="M56,53a3,3,0,1,0,3,3A3,3,0,0,0,56,53Zm0,4a1,1,0,1,1,1-1A1,1,0,0,1,56,57Z"/><path d="M35,54a2,2,0,0,0-2,2H32v2h1a2,2,0,0,0,2-2,2,2,0,0,0,2-2h1V52H37A2,2,0,0,0,35,54Z"/><path d="M17,45V43H16a2,2,0,0,0-2-2,2,2,0,0,0-2-2H11v2h1a2,2,0,0,0,2,2,2,2,0,0,0,2,2Z"/><path d="M56,33a2,2,0,0,0-2,2H53v2h1a2,2,0,0,0,2-2,2,2,0,0,0,2-2h1V31H58A2,2,0,0,0,56,33Z"/><text x="0" y="79" fill="#000000" font-size="5px" font-weight="bold" font-family="'Helvetica Neue', Helvetica, Arial-Unicode, Arial, Sans-serif">Created by Manthana Chaiwong</text><text x="0" y="84" fill="#000000" font-size="5px" font-weight="bold" font-family="'Helvetica Neue', Helvetica, Arial-Unicode, Arial, Sans-serif">from the Noun Project</text></svg>