<svg xmlns="http://www.w3.org/2000/svg" xmlns:xlink="http://www.w3.org/1999/xlink" xml:space="preserve" version="1.1" style="shape-rendering:geometricPrecision;text-rendering:geometricPrecision;image-rendering:optimizeQuality;" viewBox="0 0 60000 75000" x="0px" y="0px" fill-rule="evenodd" clip-rule="evenodd"><defs><style type="text/css">
   
    .fil0 {fill:black;fill-rule:nonzero}
   
  </style></defs><g><path class="fil0" d="M1818 58824c-70,209 -296,321 -505,252 -209,-70 -321,-296 -252,-505 635,-1887 1463,-3915 2317,-6007 1705,-4178 3514,-8611 4013,-12437 -35,-3651 -2805,-6867 -4858,-9251 -280,-325 -548,-636 -761,-890 -280,-305 -396,-644 -394,-949 1,-199 53,-384 144,-539 97,-165 237,-297 407,-377 217,-102 476,-122 748,-25 403,144 968,780 1306,1160 57,64 108,121 130,146l21 23c672,738 1472,1617 2031,1812 63,22 119,33 165,31 27,-1 51,-8 72,-22l27 -18c-189,-557 -480,-1243 -789,-1973 -404,-954 -840,-1982 -1134,-2909 -30,-94 -35,-111 -41,-129 -211,-646 -596,-1822 144,-2306 315,-206 621,-190 908,-41 221,115 417,314 585,540 158,212 310,467 451,729 128,238 256,502 370,740 201,419 379,824 556,1224 427,969 844,1914 1162,2234 15,-404 -246,-2125 -484,-3701 -159,-1051 -309,-2037 -364,-2576 -91,-416 69,-828 339,-1082 114,-107 250,-189 397,-234 159,-49 327,-57 496,-11 328,89 640,375 823,950l6 16c358,1317 712,3101 1040,4750 131,659 258,1297 360,1787 1,7 3,14 5,20l36 -21 18 6c8,-26 15,-55 21,-87 128,-696 243,-1756 362,-2849 124,-1148 253,-2333 406,-3197 47,-475 292,-823 597,-993 152,-84 318,-126 485,-119 172,7 341,62 493,170 298,213 528,637 542,1307l0 5c10,1022 -38,2264 -87,3507 -64,1632 -128,3264 -56,4349 31,472 92,906 266,1142 126,171 371,227 826,74 492,-166 1024,-735 1541,-1288 224,-239 445,-476 651,-672l11 -11c507,-482 1594,-1515 2471,-1265 272,78 511,246 663,483 140,219 205,491 153,797 -55,322 -477,970 -1016,1690 -864,1154 -2053,2553 -2407,2954 -682,772 -1375,1560 -2032,2477 -647,904 -1251,1924 -1758,3163 -795,1943 -1514,4404 -2129,6971 -760,3172 -1361,6513 -1752,9244 -14,101 -60,393 -107,698 -59,380 -122,785 -150,1008 -28,218 -227,373 -445,345 -218,-28 -373,-227 -345,-445 30,-233 94,-644 153,-1030 35,-228 69,-446 104,-689 392,-2741 998,-6104 1768,-9316 623,-2602 1355,-5102 2167,-7087 538,-1314 1171,-2386 1845,-3328 665,-929 1380,-1742 2085,-2540 348,-394 1518,-1770 2367,-2904 472,-630 835,-1163 866,-1343 16,-96 0,-176 -38,-235 -44,-69 -120,-120 -210,-146 -440,-126 -1301,692 -1702,1074l-11 11c-214,203 -416,419 -620,637 -586,627 -1188,1271 -1870,1501 -859,290 -1387,98 -1723,-358 -288,-391 -379,-963 -419,-1564 -74,-1115 -9,-2773 56,-4430 48,-1237 97,-2473 87,-3465 -8,-382 -96,-593 -208,-673 -21,-15 -41,-23 -58,-23 -22,-1 -46,6 -70,19 -95,53 -173,186 -190,385l-2 21 -3 16c-154,863 -281,2027 -403,3155 -120,1104 -236,2173 -371,2908 -16,87 -37,166 -63,237 -60,167 -149,299 -253,390 -126,110 -270,164 -423,158 -13,4 -26,7 -39,9 -150,31 -302,9 -442,-66 -118,-64 -225,-166 -305,-304 -53,-91 -95,-200 -121,-325 -129,-620 -244,-1199 -363,-1796 -324,-1631 -675,-3395 -1028,-4694l1 0c-85,-262 -181,-380 -267,-403 -17,-5 -35,-4 -52,2 -28,9 -57,27 -85,53 -84,79 -134,207 -104,335l4 18 4 37c46,465 200,1483 364,2569 248,1636 519,3424 490,3886 -15,247 -106,444 -242,579 -72,71 -156,125 -249,159 -93,34 -190,49 -289,43l-2 0c-196,-12 -401,-105 -581,-285 -425,-427 -871,-1438 -1328,-2474 -188,-427 -378,-858 -543,-1202 -103,-214 -219,-455 -354,-706 -123,-228 -254,-448 -388,-629 -104,-140 -213,-257 -313,-309 -35,-18 -70,-21 -102,0 -228,149 34,950 178,1390 25,77 40,122 45,136 291,917 714,1915 1105,2840 319,754 619,1461 815,2043 69,206 55,395 -9,553 -72,178 -209,312 -364,386 -139,86 -289,130 -448,138 -152,7 -307,-20 -465,-75 -752,-262 -1626,-1222 -2359,-2028l-21 -23c-53,-58 -92,-103 -137,-152 -287,-323 -767,-862 -978,-938 -60,-21 -107,-22 -139,-7 -24,11 -45,32 -61,58 -22,37 -34,85 -34,139 -1,121 56,267 192,413l14 16c259,309 501,591 755,885 2140,2484 5028,5837 5052,9794l0 26 -3 26c-508,3945 -2340,8433 -4066,12663 -854,2093 -1682,4122 -2301,5960zm12999 -49199c-17,-52 11,-109 63,-126 52,-17 109,11 126,63l871 2578c17,52 -11,109 -63,126 -52,17 -109,-11 -126,-63l-871 -2578zm-44 1372c-17,-52 11,-109 63,-126 52,-17 109,11 126,63l871 2578c17,52 -11,109 -63,126 -52,17 -109,-11 -126,-63l-871 -2578zm4907 -6274c-17,-52 11,-109 63,-126 52,-17 109,11 126,63l871 2578c17,52 -11,109 -63,126 -52,17 -109,-11 -126,-63l-871 -2578zm-44 1372c-17,-52 11,-109 63,-126 52,-17 109,11 126,63l871 2578c17,52 -11,109 -63,126 -52,17 -109,-11 -126,-63l-871 -2578zm6155 12313c-167,507 -58,1077 190,1603 322,684 866,1279 1361,1584 6,4 22,4 45,2 33,-3 65,-13 93,-29 24,-14 44,-31 56,-51 7,-11 11,-27 9,-48 -58,-675 -73,-1189 62,-1750 134,-556 409,-1122 928,-1892 49,-72 79,-141 91,-203 11,-54 10,-101 -4,-139 -8,-23 -24,-43 -46,-58 -23,-16 -51,-27 -85,-34 -444,-90 -1042,-192 -1570,-78 -473,102 -908,398 -1132,1089l-1 3 1 0zm-531 1944c-328,-696 -466,-1472 -228,-2194l1 0c333,-1025 996,-1467 1722,-1624 672,-145 1376,-28 1895,78 145,29 270,82 375,153 169,114 287,273 352,458 60,171 71,362 32,557 -34,167 -104,335 -210,493 -465,690 -707,1177 -816,1630 -108,447 -92,897 -41,1500 17,200 -33,380 -128,532 -84,136 -203,245 -338,323 -131,76 -279,123 -424,135 -182,16 -369,-22 -530,-121 -610,-376 -1276,-1100 -1664,-1922zm4712 -8982c-167,507 -58,1077 190,1603 322,684 866,1279 1361,1584 6,4 22,4 45,2 33,-3 65,-13 93,-29 24,-14 44,-31 56,-51 7,-11 11,-27 9,-48 -58,-675 -73,-1189 62,-1750 134,-556 409,-1122 928,-1892 49,-72 79,-141 91,-203 11,-54 10,-101 -4,-139 -8,-23 -24,-43 -46,-58 -23,-16 -51,-27 -85,-34 -444,-90 -1042,-192 -1570,-78 -473,102 -908,398 -1132,1089l-1 3 1 0zm-531 1944c-328,-696 -466,-1472 -228,-2194l1 0c333,-1025 996,-1467 1722,-1624 672,-145 1376,-28 1895,78 145,29 270,82 375,153 169,114 287,273 352,458 60,171 71,362 32,557 -34,167 -104,335 -210,493 -465,690 -707,1177 -816,1630 -108,447 -92,897 -41,1500 17,200 -33,380 -128,532 -84,136 -203,245 -338,323 -131,76 -279,123 -424,135 -182,16 -369,-22 -530,-121 -610,-376 -1276,-1100 -1664,-1922zm-13252 3454l10 3 5457 1451c231,52 393,43 499,-7 44,-21 79,-51 105,-88 32,-44 55,-102 70,-170 58,-254 -4,-583 -136,-861 -25,-54 -127,-204 -266,-411 -560,-833 -1668,-2479 -1779,-3839 -94,-1146 433,-2070 2284,-2221 147,-12 306,-10 467,-7 191,3 387,6 580,-27 303,-52 636,-148 815,-304 37,-32 64,-65 78,-97 10,-25 13,-56 6,-95 -18,-107 -95,-246 -249,-422 -31,-35 -74,-74 -112,-108 -245,-218 -402,-358 -293,-938 89,-475 250,-580 517,-753 36,-23 74,-48 98,-65 299,-209 526,-433 690,-666 254,-362 351,-751 318,-1143 -34,-412 -208,-833 -491,-1237 -302,-432 -727,-843 -1241,-1204 -736,-517 -2147,-1046 -3609,-1427 -1472,-383 -2975,-611 -3876,-521 -646,64 -1239,222 -1730,464 -441,217 -795,499 -1023,838 -218,324 -323,707 -279,1143 29,287 121,599 286,936 32,64 59,129 83,195 129,354 132,698 18,999 -117,308 -350,561 -690,728 -56,28 -117,53 -180,77 -323,118 -559,354 -749,700 -216,395 -374,925 -519,1576 -38,170 -65,292 -103,459 -310,1367 -1134,5007 -1108,5136 29,139 95,244 174,323 124,122 285,190 406,225l0 0 5469 1359zm5272 2227l-5464 -1453 -5482 -1362 -14 -3c-215,-61 -506,-187 -746,-425 -181,-179 -331,-416 -396,-729 -62,-297 791,-4060 1111,-5473l103 -456c161,-724 341,-1322 597,-1789 283,-516 653,-875 1177,-1066 34,-13 67,-27 99,-42 152,-75 251,-177 296,-294 47,-124 41,-277 -21,-446 -13,-36 -30,-74 -49,-114 -209,-425 -327,-830 -365,-1211 -63,-631 91,-1190 410,-1665 309,-460 769,-833 1332,-1110 576,-283 1263,-468 2005,-542 994,-99 2602,139 4154,543 1546,402 3056,974 3869,1545 586,412 1077,890 1434,1401 363,520 588,1074 634,1628 48,574 -92,1142 -462,1668 -214,305 -507,594 -887,860 -53,37 -88,60 -120,81 -87,57 -140,91 -167,231 -25,136 0,159 40,194 51,46 109,97 181,180 260,297 394,568 437,813 33,194 10,372 -56,533 -64,154 -164,284 -290,394 -311,271 -789,420 -1206,492 -255,44 -494,40 -727,37 -130,-2 -257,-4 -392,7 -1247,102 -1606,666 -1549,1362 94,1154 1124,2684 1644,3458 159,237 276,410 325,514 201,424 291,949 193,1379 -38,166 -104,321 -202,457 -103,144 -239,262 -411,344 -261,124 -598,159 -1023,62l-13 -3zm37478 36690c70,209 -43,435 -252,505 -209,70 -435,-43 -505,-252 -586,-1742 -1611,-4341 -2761,-7259 -2519,-6391 -5639,-14304 -6160,-18350l-3 -26 0 -26c24,-3957 2913,-7310 5052,-9794 254,-294 496,-576 755,-885l14 -16c136,-146 193,-292 192,-413 0,-54 -13,-102 -34,-139 -16,-27 -36,-47 -61,-58 -32,-15 -79,-15 -139,7 -211,76 -691,615 -978,938 -44,50 -84,94 -137,152l-21 23c-733,806 -1607,1765 -2359,2028 -158,55 -314,82 -465,75 -159,-8 -309,-52 -448,-138 -156,-74 -292,-209 -364,-386 -64,-158 -79,-348 -9,-553 197,-582 496,-1289 815,-2043 392,-925 815,-1923 1105,-2840 4,-13 19,-58 45,-136 144,-440 406,-1241 178,-1390 -33,-21 -67,-18 -102,0 -101,52 -209,169 -313,309 -135,181 -266,401 -388,629 -135,251 -252,492 -354,706 -165,344 -355,775 -543,1202 -457,1037 -903,2047 -1328,2474 -180,181 -384,273 -581,285l-2 0c-99,6 -196,-8 -289,-43 -93,-35 -177,-88 -249,-159 -136,-136 -227,-332 -242,-579 -29,-462 242,-2250 490,-3886 164,-1086 319,-2104 364,-2569l4 -37 4 -18c30,-128 -20,-256 -104,-335 -28,-26 -57,-44 -85,-53 -17,-5 -35,-6 -52,-2 -86,23 -182,141 -267,403l1 0c-353,1299 -704,3063 -1028,4694 -119,597 -234,1176 -363,1796 -26,125 -68,233 -121,325 -80,138 -186,240 -305,304 -139,75 -292,98 -442,66 -13,-3 -26,-6 -39,-9 -153,6 -297,-48 -423,-158 -104,-91 -192,-223 -253,-390 -26,-71 -47,-150 -63,-237 -136,-735 -251,-1804 -371,-2908 -122,-1128 -248,-2292 -403,-3155l-3 -16 -2 -21c-17,-199 -95,-332 -190,-385 -24,-13 -48,-20 -70,-19 -17,1 -37,8 -58,23 -112,80 -200,291 -208,673 -10,991 38,2228 87,3465 65,1657 130,3315 56,4430 -40,601 -131,1173 -419,1564 -336,456 -863,648 -1723,358 -681,-230 -1283,-874 -1870,-1501 -204,-218 -406,-434 -620,-637l-11 -11c-402,-382 -1262,-1200 -1702,-1074 -89,26 -165,76 -210,146 -38,59 -54,138 -38,235 31,180 394,713 866,1343 849,1133 2018,2509 2367,2904 704,797 1419,1610 2085,2540 675,942 1308,2014 1845,3328 612,1495 1175,3272 1680,5160 584,2183 1094,4528 1512,6761 180,961 704,4213 1232,7562 591,3748 1184,7610 1296,8487 28,218 -127,418 -345,445 -218,28 -418,-127 -445,-345 -112,-870 -704,-4723 -1293,-8465 -523,-3320 -1046,-6557 -1229,-7537 -413,-2208 -919,-4531 -1499,-6702 -500,-1870 -1053,-3617 -1646,-5066 -507,-1238 -1111,-2259 -1758,-3163 -657,-917 -1349,-1705 -2032,-2477 -354,-401 -1544,-1800 -2407,-2954 -539,-720 -961,-1368 -1016,-1690 -52,-306 13,-578 153,-797 152,-238 391,-406 663,-483 877,-251 1964,783 2471,1265l11 11c206,196 427,432 651,672 518,554 1049,1122 1541,1288 454,153 700,97 826,-74 174,-236 234,-671 266,-1142 72,-1085 8,-2717 -56,-4349 -49,-1243 -97,-2485 -87,-3507l0 -5c14,-670 245,-1095 542,-1307 152,-108 321,-164 493,-170 168,-7 334,35 485,119 305,170 550,518 597,993 154,864 282,2049 406,3197 119,1093 233,2153 362,2849 6,32 13,61 21,87l18 -6 36 21c2,-6 3,-13 5,-20 102,-490 229,-1128 360,-1787 328,-1649 683,-3433 1040,-4750l6 -16c183,-575 495,-861 823,-950 168,-46 337,-38 496,11 147,46 283,127 397,234 270,254 431,666 339,1082 -55,539 -205,1525 -364,2576 -239,1576 -499,3297 -484,3701 318,-320 735,-1264 1162,-2234 177,-400 355,-805 556,-1224 114,-238 242,-501 370,-740 141,-262 293,-516 451,-729 169,-226 364,-425 585,-540 287,-150 593,-166 908,41 740,484 355,1660 144,2306 -6,18 -12,36 -41,129 -294,927 -730,1955 -1134,2909 -310,731 -600,1416 -789,1973l27 18c21,14 45,21 72,22 46,2 102,-9 165,-31 559,-195 1359,-1074 2031,-1812l21 -23c23,-25 74,-82 130,-146 338,-380 903,-1016 1306,-1160 273,-98 531,-78 748,25 171,81 311,212 407,377 91,155 142,340 144,539 2,304 -114,643 -394,949 -213,254 -481,565 -761,890 -2053,2384 -4823,5599 -4858,9250 518,3948 3610,11794 6109,18134 1150,2916 2174,5515 2773,7296zm-23970 3053c37,217 -109,424 -327,461 -217,37 -424,-109 -461,-327 -176,-1023 -385,-2106 -635,-3173 -247,-1052 -535,-2090 -874,-3041 -1860,-3638 -5974,-5326 -9024,-6578 -408,-167 -798,-327 -1131,-470 -392,-146 -659,-404 -808,-691 -101,-194 -147,-404 -141,-604 7,-215 72,-419 193,-586 143,-197 357,-341 637,-391 442,-78 1273,247 1771,441 81,32 154,60 191,74l31 12c974,366 2134,802 2733,691 67,-12 121,-31 160,-58 28,-19 51,-45 67,-80l20 -42 24 -31c2,-2 -3,1 -4,-3 -1,-10 -8,-23 -23,-38 -450,-454 -1060,-984 -1711,-1548 -837,-725 -1739,-1508 -2475,-2280 -36,-38 -68,-70 -102,-106 -500,-515 -1411,-1452 -1011,-2285 177,-368 461,-516 797,-525 261,-7 539,85 806,219 254,127 517,297 772,478 258,183 494,368 704,533 328,259 722,590 1112,918 870,732 1718,1445 2167,1590 14,4 26,8 36,10 -4,-23 -14,-52 -29,-88 -167,-389 -1280,-1990 -2297,-3454 -682,-981 -1321,-1901 -1626,-2388 -279,-362 -324,-854 -191,-1234 55,-158 141,-301 255,-414 125,-125 282,-212 466,-246 334,-61 737,66 1159,508l11 13c987,1125 2193,2704 3308,4164 403,528 793,1039 1219,1586l12 15 19 -34 43 -7c-2,-18 -4,-39 -9,-62 -6,-35 -15,-74 -28,-117 -235,-778 -658,-1895 -1094,-3048 -456,-1204 -927,-2447 -1223,-3407 -196,-496 -138,-973 64,-1292 97,-154 231,-275 390,-351 163,-79 348,-106 543,-71 362,66 761,361 1089,986l2 3c525,1026 1098,2286 1670,3546 758,1668 1516,3336 2119,4375 267,459 542,864 821,1006 194,99 440,18 774,-383 371,-446 571,-1316 766,-2163 79,-342 157,-681 255,-1022l-1 0 5 -17 2 0c217,-752 680,-2362 1592,-2592 289,-73 594,-36 853,119 231,138 419,365 520,684 106,334 46,1198 -82,2201 -206,1622 -585,3669 -706,4263 -234,1152 -470,2325 -607,3599 -136,1260 -173,2617 -13,4146 114,1083 322,2345 586,3678 315,1597 707,3284 1106,4879 54,214 -77,431 -291,484 -214,54 -431,-77 -484,-291 -403,-1610 -798,-3313 -1116,-4920 -266,-1345 -478,-2630 -595,-3750 -167,-1592 -128,-3003 13,-4312 139,-1295 380,-2494 619,-3670 119,-586 493,-2605 696,-4206 114,-900 177,-1646 110,-1860 -38,-120 -98,-199 -167,-240 -71,-43 -161,-51 -250,-29 -468,118 -845,1425 -1020,2035l1 0 -5 17 -2 0c-83,287 -162,633 -243,982 -216,938 -438,1900 -932,2495 -634,763 -1212,860 -1749,586 -452,-230 -816,-746 -1149,-1319 -626,-1077 -1391,-2762 -2157,-4447 -576,-1268 -1153,-2537 -1650,-3508 -198,-377 -381,-544 -523,-570 -23,-4 -43,-2 -59,5 -19,9 -39,30 -59,61 -79,125 -91,336 8,581l11 31c286,932 757,2174 1212,3376 443,1171 873,2305 1113,3101 22,72 38,143 50,210 35,199 25,377 -20,520 -54,171 -155,299 -294,375 -24,26 -50,50 -77,71 -108,84 -239,131 -384,134 -122,3 -250,-28 -375,-96 -117,-64 -231,-160 -333,-291 -337,-433 -773,-1004 -1222,-1592 -1107,-1449 -2304,-3016 -3263,-4111 -207,-217 -351,-289 -440,-273 -15,3 -30,12 -45,27 -26,26 -48,65 -64,111 -55,156 -37,356 77,494l21 25 11 17c284,456 927,1381 1612,2367 1038,1494 2174,3127 2375,3598 107,251 118,489 54,687 -33,103 -85,194 -153,270 -69,77 -155,139 -255,181 -178,76 -396,87 -631,11 -596,-192 -1504,-956 -2436,-1740 -353,-297 -709,-597 -1093,-899 -212,-167 -448,-351 -673,-511 -228,-163 -458,-311 -665,-415 -162,-81 -317,-138 -431,-135 -39,1 -73,21 -97,71 -160,332 501,1011 864,1385 42,43 81,83 108,112 713,747 1598,1515 2419,2227 664,576 1286,1116 1755,1589 156,157 232,339 251,516 22,200 -33,394 -132,539 -79,151 -187,270 -322,361 -135,92 -291,151 -463,183 -817,152 -2089,-326 -3158,-728l-31 -12c-73,-27 -133,-51 -200,-77 -419,-164 -1119,-437 -1343,-397 -60,11 -102,37 -128,72 -27,37 -41,85 -43,139 -2,68 15,143 53,216 65,126 192,242 385,312l20 8c376,161 743,311 1127,469 3174,1302 7458,3060 9446,6981l14 28 6 18c351,982 650,2057 906,3148 254,1083 466,2182 645,3220z"/></g><text x="0" y="60015" fill="#000000" font-size="5px" font-weight="bold" font-family="'Helvetica Neue', Helvetica, Arial-Unicode, Arial, Sans-serif">Created by Olena Panasovska</text><text x="0" y="60020" fill="#000000" font-size="5px" font-weight="bold" font-family="'Helvetica Neue', Helvetica, Arial-Unicode, Arial, Sans-serif">from the Noun Project</text></svg>