<svg xmlns="http://www.w3.org/2000/svg" xmlns:xlink="http://www.w3.org/1999/xlink" version="1.1" x="0px" y="0px" viewBox="-37 101 100 125" enable-background="new -37 101 100 100" xml:space="preserve"><path d="M-20.464,182.72c0,3.28-2.659,5.94-5.938,5.94c-3.277,0-5.934-2.66-5.934-5.94c0-3.276,2.656-5.936,5.934-5.936  C-23.124,176.784-20.464,179.445-20.464,182.72z"/><path d="M-13.264,192.982h-0.104c0.046,0.131,0.081,0.266,0.104,0.409v0.356c0,1.204-0.945,2.191-2.135,2.25  c-0.04,0.001-0.079,0.001-0.116,0.001h-0.737V196H-29.48c-1.243,0-2.252-1.008-2.252-2.254c0-1.244,1.009-2.253,2.252-2.253h11.71  V181.5c0-1.246,1.01-2.256,2.254-2.256c1.243,0,2.251,1.011,2.251,2.256V192.982z"/><path d="M-9.542,196c0,0-0.027-8.701-0.027-14.153c0-5.02,4.572-5.868,10.788-4.745c0,0,0.184,0.035,0.502,0.107h0.003  c0.224-0.015,0.458-0.011,0.696,0.019l33.91,4.979c2.071,0.265,4.856,1.522,4.856,4.888V196H-9.542z"/><rect x="53.75" y="106.03" width="4.207" height="89.97"/><rect x="29.232" y="108.195" width="26.885" height="1.592"/><rect x="24.616" y="106.828" width="17.31" height="4.27"/><rect x="24.616" y="112.365" width="11.428" height="1.882"/><text x="-37" y="216" fill="#000000" font-size="5px" font-weight="bold" font-family="'Helvetica Neue', Helvetica, Arial-Unicode, Arial, Sans-serif">Created by Ed Harrison</text><text x="-37" y="221" fill="#000000" font-size="5px" font-weight="bold" font-family="'Helvetica Neue', Helvetica, Arial-Unicode, Arial, Sans-serif">from the Noun Project</text></svg>